Coordinates
version=1
nRows=29
nColumns=24
inDegrees=yes

Units are S.I. units (second, meters, Newtons, ...)
Angles are in degrees.

endheader
time	pelvis_tilt	pelvis_list	pelvis_rotation	pelvis_tx	pelvis_ty	pelvis_tz	hip_flexion_r	hip_adduction_r	hip_rotation_r	knee_angle_r	ankle_angle_r	subtalar_angle_r	mtp_angle_r	hip_flexion_l	hip_adduction_l	hip_rotation_l	knee_angle_l	ankle_angle_l	subtalar_angle_l	mtp_angle_l	lumbar_extension	lumbar_bending	lumbar_rotation
      0.43300000	     -7.37164699	      3.53927759	      0.83254610	     -0.81880210	      1.02304040	      0.29963985	     37.31831945	     -2.78769531	     -2.06514295	     -6.65931087	     10.53135792	     -3.65788398	      8.62113998	    -11.53704634	      5.04917433	      4.96074398	     -3.37562745	     18.83361518	      6.63078181	      3.70218033	    -10.50676174	     -3.28284459	     -3.42363609
      0.43716667	     -7.37417111	      3.57110695	      0.97818347	     -0.81272380	      1.02204658	      0.29974277	     37.22991610	     -2.82629254	     -1.81291537	     -6.99200451	     10.50017703	     -3.81459802	      8.62075614	    -11.66495805	      5.03766936	      4.95649462	     -3.86083715	     18.95686871	      6.85318163	      3.75480485	    -10.49165873	     -3.19557404	     -3.52153414
      0.44133333	     -7.40348351	      3.59532471	      1.12673577	     -0.80656761	      1.02105368	      0.29984850	     37.15342632	     -2.85894165	     -1.57921240	     -7.32922324	     10.42817454	     -3.96930020	      8.62926297	    -11.73832157	      5.01510340	      4.90326121	     -4.40788475	     19.09928920	      7.16817217	      3.84396278	    -10.43393715	     -3.10209007	     -3.57471688
      0.44550000	     -7.41297433	      3.60704481	      1.27628590	     -0.80037815	      1.02014168	      0.29996209	     37.04024760	     -2.88138506	     -1.37313793	     -7.66424752	     10.31502942	     -4.11723028	      8.64775807	    -11.81527738	      4.97451426	      4.81774852	     -4.99499261	     19.22982844	      7.52732901	      3.97707905	    -10.39951423	     -2.98482612	     -3.63962327
      0.44966667	     -7.43340151	      3.62320770	      1.42100196	     -0.79416305	      1.01925764	      0.30008783	     36.93426132	     -2.90542954	     -1.18080289	     -8.01070922	     10.15784827	     -4.26715191	      8.67867638	    -11.85890935	      4.93762169	      4.72102504	     -5.62559406	     19.33894859	      7.90111830	      4.15029986	    -10.34721827	     -2.87644750	     -3.67917121
      0.45383333	     -7.45676683	      3.62676084	      1.57320185	     -0.78789868	      1.01843359	      0.30021268	     36.81305630	     -2.92292491	     -1.02147956	     -8.34370434	      9.94537385	     -4.41892822	      8.71809240	    -11.87711875	      4.88178365	      4.59983628	     -6.30255995	     19.42730473	      8.30207557	      4.35306025	    -10.28453349	     -2.74855560	     -3.73214286
      0.45800000	     -7.47817007	      3.63229776	      1.70585029	     -0.78161721	      1.01765630	      0.30036866	     36.69816504	     -2.93251679	     -0.88630282	     -8.70299768	      9.66808216	     -4.58137969	      8.78104765	    -11.87186557	      4.82781731	      4.41183145	     -7.03213697	     19.50223581	      8.77056210	      4.64973286	    -10.23259398	     -2.62193306	     -3.75431358
      0.46216667	     -7.49073971	      3.63265723	      1.84982077	     -0.77532213	      1.01696983	      0.30052266	     36.55146280	     -2.94478717	     -0.76093558	     -9.02612677	      9.34123602	     -4.74673104	      8.87047852	    -11.84663277	      4.76113782	      4.21518247	     -7.81913696	     19.54101648	      9.26149129	      5.05646124	    -10.18674250	     -2.50123217	     -3.77925290
      0.46633333	     -7.49909850	      3.59655458	      1.99127891	     -0.76895200	      1.01636391	      0.30065854	     36.39590473	     -2.92739617	     -0.71986235	     -9.35907698	      8.97533835	     -4.91491568	      9.02742197	    -11.80474609	      4.65215423	      3.98354141	     -8.64973521	     19.57705604	      9.78611059	      5.74597310	    -10.13952049	     -2.31332707	     -3.75079348
      0.47050000	     -7.58068919	      3.59149604	      2.12637797	     -0.76258560	      1.01569651	      0.30083703	     36.32626698	     -2.93280763	     -0.63696464	     -9.70341216	      8.53032397	     -5.14227374	      9.07990690	    -11.67283567	      4.58240275	      3.84292996	     -9.50129948	     19.49304334	     10.11961148	      6.02127809	     -9.97246949	     -2.17182457	     -3.81469423
      0.47466667	     -7.61202772	      3.54488368	      2.25850331	     -0.75619532	      1.01520188	      0.30101640	     36.19043030	     -2.90274246	     -0.61411347	    -10.02709608	      8.03367993	     -5.35875138	      9.14076037	    -11.54444868	      4.45516089	      3.56411220	    -10.45157790	     19.45764126	     10.68719833	      6.36388555	     -9.88835097	     -1.97622376	     -3.78949733
      0.47883333	     -7.63690983	      3.50457486	      2.36924827	     -0.74981278	      1.01476933	      0.30123569	     36.06894342	     -2.86977888	     -0.60484105	    -10.38919110	      7.50380704	     -5.59008270	      9.20910864	    -11.40133168	      4.33398265	      3.25928177	    -11.43603041	     19.35878187	     11.24161826	      6.77941256	     -9.81005911	     -1.79521058	     -3.76702443
      0.48300000	     -7.66114164	      3.46993095	      2.47033602	     -0.74343381	      1.01441241	      0.30147148	     35.97399370	     -2.84592964	     -0.66293928	    -10.80569916	      6.97944396	     -5.70749618	      9.86543126	    -11.23500633	      4.21662455	      2.96757634	    -12.45182478	     19.12481861	     11.73946133	     10.65943145	     -9.74858392	     -1.62885834	     -3.67411432
      0.48716667	     -7.71651581	      3.39749442	      2.57274588	     -0.73700669	      1.01410327	      0.30171718	     35.88772878	     -2.78341486	     -0.66812252	    -11.17871035	      6.37664650	     -6.01916421	      9.85465546	    -11.01107898	      4.05843256	      2.69407154	    -13.52700063	     18.91575853	     12.17768429	     10.75202752	     -9.61603875	     -1.39556280	     -3.68114735
      0.49133333	     -7.72780668	      3.33115896	      2.64339385	     -0.73062021	      1.01390947	      0.30202856	     35.79808004	     -2.71580926	     -0.71805777	    -11.63414333	      5.79744926	     -6.23831922	      9.84917223	    -10.79171825	      3.89645349	      2.31225540	    -14.66907539	     18.68319342	     12.79623376	     10.95173632	     -9.56587688	     -1.17979389	     -3.59786067
      0.49550000	     -7.70498120	      3.22359699	      2.71425594	     -0.72421221	      1.01387210	      0.30232683	     35.66390373	     -2.61508139	     -0.80134426	    -12.07937556	      5.22951642	     -6.45100480	      9.85029377	    -10.57901310	      3.68181195	      1.91941950	    -15.86441524	     18.39114195	     13.37968847	     11.59589353	     -9.55073564	     -0.90675208	     -3.49969829
      0.49966667	     -7.73441318	      3.12509875	      2.77075221	     -0.71780537	      1.01381025	      0.30267941	     35.61562863	     -2.51734407	     -0.87509775	    -12.58967489	      4.68572804	     -6.65914345	      9.84030286	    -10.28084467	      3.47511846	      1.52730012	    -17.10265976	     18.02519602	     13.92790177	     12.26385139	     -9.46162836	     -0.65236063	     -3.40012457
      0.50383333	     -7.82020775	      3.05163602	      2.82305005	     -0.71141142	      1.01371769	      0.30304474	     35.66043692	     -2.44768132	     -0.95798994	    -13.17173712	      4.23517621	     -6.78814619	      9.82632747	     -9.89357125	      3.30453519	      1.22140635	    -18.39326881	     17.55990154	     14.30890102	     12.53238451	     -9.28496801	     -0.45268841	     -3.29168175
      0.50800000	     -7.80665177	      2.93394752	      2.84472179	     -0.70503960	      1.01384744	      0.30347228	     35.60819208	     -2.32034739	     -1.04728700	    -13.77382192	      3.78688320	     -6.94526720	      9.80381412	     -9.57176889	      3.06205795	      0.77190768	    -19.74189347	     17.08646985	     14.89359243	     12.91813753	     -9.25936880	     -0.17541795	     -3.15802403
      0.51216667	     -7.79056894	      2.82745518	      2.84708268	     -0.69869028	      1.01405757	      0.30394894	     35.56452216	     -2.19082502	     -1.07894697	    -14.39755602	      3.32366960	     -7.18249127	      9.53400421	     -9.24420422	      2.83672554	      0.39413394	    -21.07756331	     16.38525396	     15.25636915	     17.57961756	     -9.24141691	      0.08159217	     -3.02323147
      0.51633333	     -7.79368776	      2.70616987	      2.85262823	     -0.69232540	      1.01428109	      0.30439407	     35.56938762	     -2.06672839	     -1.22220775	    -15.09555301	      3.05973873	     -7.13856505	      9.52197722	     -8.85130382	      2.58813016	      0.00299399	    -22.50494403	     15.74934844	     15.69176449	     17.66087090	     -9.18358252	      0.36056558	     -2.87220469
      0.52050000	     -7.76335893	      2.57753105	      2.83239233	     -0.68599388	      1.01460420	      0.30491297	     35.54074271	     -1.91565326	     -1.30395867	    -15.79400339	      2.77713369	     -7.19988917	      9.49883288	     -8.46213760	      2.31986763	     -0.43018707	    -23.97274612	     15.03863037	     16.14402617	     17.80443334	     -9.17390821	      0.64479259	     -2.71018325
      0.52466667	     -7.73297731	      2.45420552	      2.79036963	     -0.67969486	      1.01497351	      0.30550787	     35.51661493	     -1.75040362	     -1.32033491	    -16.49963399	      2.48070682	     -7.37328647	      9.06919767	     -8.05137668	      2.05177697	     -0.85318386	    -25.45640125	     14.19121764	     16.51180762	     20.59227762	     -9.17216128	      0.91437471	     -2.52289459
      0.52883333	     -7.67636316	      2.31969660	      2.74446946	     -0.67340412	      1.01542191	      0.30606920	     35.47675752	     -1.58799264	     -1.42149343	    -17.24111538	      2.36020581	     -7.28817731	      9.05910624	     -7.63539098	      1.76708588	     -1.26741096	    -26.99674214	     13.35628605	     16.86239441	     20.65581536	     -9.20326163	      1.21656399	     -2.36336850
      0.53300000	     -7.61599028	      2.18799710	      2.68009185	     -0.66714220	      1.01590787	      0.30670375	     35.42299469	     -1.41001272	     -1.46471462	    -17.95594119	      2.21770101	     -7.28810457	      9.03667124	     -7.19689466	      1.47626739	     -1.68826133	    -28.56871638	     12.45307130	     17.17655850	     20.76080767	     -9.23440082	      1.49646731	     -2.17954856
      0.53716667	     -7.55135205	      2.05573068	      2.60318145	     -0.66090906	      1.01642787	      0.30737399	     35.36119066	     -1.22393111	     -1.49498339	    -18.66359753	      2.10845861	     -7.28577817	      9.00451613	     -6.73882221	      1.17708487	     -2.10474242	    -30.16824244	     11.49490541	     17.45544992	     20.90200290	     -9.27962361	      1.77535746	     -1.98994724
      0.54133333	     -7.47029330	      1.92360805	      2.51408530	     -0.65470400	      1.01700297	      0.30807869	     35.26873125	     -1.02895192	     -1.51009221	    -19.34197447	      2.02790449	     -7.26897657	      8.96547563	     -6.27562085	      0.87267582	     -2.50761302	    -31.78801331	     10.48377649	     17.67254997	     21.06015395	     -9.34445512	      2.05128540	     -1.79637196
      0.54550000	     -7.38615168	      1.79498336	      2.41466694	     -0.64854042	      1.01759437	      0.30881501	     35.16412740	     -0.82937964	     -1.51407371	    -19.99825832	      1.97369419	     -7.25206900	      8.91885553	     -5.79358013	      0.56616533	     -2.89904104	    -33.43120794	      9.43956274	     17.82898070	     21.23177200	     -9.41845301	      2.32024956	     -1.59870696
      0.54966667	     -7.28613334	      1.67720994	      2.31035540	     -0.64240021	      1.01826216	      0.30955667	     35.02019651	     -0.63421005	     -1.48978165	    -20.61120200	      1.95286001	     -7.22364754	      8.89014589	     -5.31847534	      0.27845911	     -3.22598299	    -35.05968326	      8.30568046	     17.85945142	     21.32133354	     -9.52469791	      2.60159841	     -1.44358961
